<svg xmlns="http://www.w3.org/2000/svg" viewBox="1214.1 230.2 351.7 100.6"><g fill="#29ACE2"><path d="M1528.1 236.7c1.3-1 3-1.2 4.6-.9 1.5.2 2.9 1.2 3.6 2.5.7 1.3.9 2.7.9 4.1v10.7c0 1.9-.1 3.8.1 5.7 1-.8 1.8-1.8 2.8-2.7 2.4-2.1 5.5-3.4 8.6-3.7 3.7-.5 7.7.1 10.9 2.2 2.3 1.4 3.9 3.7 5 6.1.8 1.7 1 3.6 1.2 5.5v27c-.3 1.1-.8 2.3-1.6 3.2-.9 1-2.3 1.5-3.6 1.5-1.6.1-3.3-.3-4.3-1.6-1.3-1.5-1.5-3.6-1.5-5.5v-19.7c0-2.4-.4-4.9-1.5-7.1-.5-.9-1.2-1.7-2.1-2.2-1.7-.9-3.6-.9-5.5-.8-3 .5-5.6 2.5-7 5.2-.8 1.6-1.1 3.3-1.2 5.1-.1 2.1-.2 4.2-.2 6.4v13.9c0 1.9-.6 3.9-2.1 5.1-1.4 1.2-3.4 1.3-5.1 1-1.2-.2-2.4-1-3-2.1-.9-1.6-1-3.4-1.1-5.2v-44.8c0-1.8-.1-3.6.2-5.3.1-1.3.7-2.7 1.9-3.6zm-236.8 77.4c-1.1-2.3-3-4.2-5.2-5.3-1.2-.6-2.5-.8-3.6-1.4-2-1.1-3.9-2.5-5.5-4.1-2.2-2.3-3.7-5.4-4.2-8.6-.6-4.4.4-8.8 2.1-12.9.5-1.3 1.3-2.4 1.9-3.7 2.2-4.5 3.5-9.5 3.4-14.5.3-10.9-5.5-21.6-14.5-27.7-4.9-3.3-10.6-5.2-16.5-5.6h-4.1c-2.7.3-5.3.7-7.8 1.5-6.5 2-12.3 6.1-16.4 11.5-4 5.3-6.4 11.8-6.8 18.4v4.5c.4 3 1 6.1 2.1 8.9 2.4 6.4 6.9 12 12.5 15.9 4.6 3.1 9.9 4.9 15.4 5.5 1.8.2 3.6 0 5.3.1 2.4.1 4.8.3 7.1 1.1 3.3 1 6.4 2.9 8.6 5.7 2.8 3.6 4.1 8.1 4.2 12.6-.1 1.9-.4 3.8-.1 5.7.4 2 1.3 3.9 2.6 5.4 1.7 2.1 4.3 3.3 6.9 4h3.9c1.3-.3 2.6-.7 3.8-1.4 2.6-1.5 4.7-4 5.5-6.9.9-3.1.6-6.1-.6-8.7zm-24.1-34.4c-4 5-9.9 8.4-16.2 9.3-2.3.3-4.6.4-7 .1-5.3-.7-10.3-3-14.2-6.6-4.5-4.1-7.5-9.7-8.2-15.7-.7-5 .2-10.2 2.4-14.7 2.1-4.2 5.4-7.9 9.4-10.4 3.4-2.1 7.3-3.5 11.3-3.9 2.4-.1 4.8-.2 7.1.3 6.7 1.2 12.8 5.1 16.6 10.7 2.2 3.1 3.6 6.8 4.3 10.6.3 2.3.3 4.7.1 7-.6 4.9-2.5 9.5-5.6 13.3z"/><path d="M1236.8 244.9c-.1 0-.3.1-.4.2-6.1 3.8-10.1 10.8-10.2 18-.1 4.3 1.1 8.7 3.4 12.3.5.7 1.3 1.2 2.2 1.2 1.5.1 2.9-1.2 2.8-2.6.1-1.1-.7-1.9-1.2-2.8-1.9-3.6-2.4-7.9-1.3-11.8 1-3.9 3.5-7.4 6.9-9.6 1-.6 1.6-1.7 1.3-2.8-.2-1.6-2-2.7-3.5-2.1zm259 7.4c1.7-.1 3.3-.1 5 0 3.8.3 7.6 1.5 10.8 3.6 2 1.4 3.9 3.1 5.1 5.2.8 1.4 1.4 3 1.3 4.6-.1 2.3-2.2 4.2-4.4 4.4-1 .1-2.1.1-2.9-.5-1.1-.8-1.9-1.9-2.6-3-1.4-2-3.2-4-5.6-5-1.8-.7-3.8-.7-5.6-.6-3.2.4-5.9 2.6-7.4 5.4-1.8 3.3-2.1 7.2-1.9 11 .3 3.4 1.4 7 4 9.5 2.5 2.4 6.3 3.1 9.6 2.4 2.8-.5 5.1-2.4 6.6-4.7 1-1.5 1.8-3.3 3.2-4.5 1.3-1.1 3.3-1.3 4.8-.5 1 .5 1.8 1.4 2.3 2.5.6 1.2.5 2.6.2 3.9-.9 3.5-3.5 6.4-6.5 8.4-4.1 2.6-8.9 3.7-13.7 3.6-3.5.1-6.9-.5-10.1-1.9-3.3-1.4-6.1-3.8-8.1-6.7-2.7-4-3.8-8.9-3.7-13.7-.1-3.6.6-7.3 1.9-10.6 1.4-3.5 3.8-6.6 6.9-8.7 3.1-2.5 7-3.7 10.8-4.1zm-184.4.1c2.5-.3 4.9 0 7.4.2 3.4.5 6.8 1.6 9.6 3.7 1.5 1.2 2.8 2.7 3.4 4.5.4 1.3.4 2.9-.3 4.1-.7 1.1-1.8 1.8-3.1 2-1.4.2-2.9.1-4-.7-1.3-1-2.3-2.3-3.4-3.6-1.3-1.6-3.2-2.8-5.2-3-2-.2-4.1-.2-6 .6-1 .4-1.9 1.1-2.6 2-.9 1.3-.7 3.3.5 4.3 1.4 1.3 3.2 1.9 4.9 2.4 4.3 1.3 8.8 2 13 3.8 2.3 1 4.6 2.3 6.3 4.3.9 1 1.6 2.3 2 3.6.4 1.4.3 2.9.3 4.3-.2 2.9-1.4 5.8-3.5 7.9-1.8 1.9-4.2 3.1-6.7 3.9-3.1 1-6.4 1.3-9.7 1.3-3.9 0-7.9-.6-11.4-2.4-2.5-1.2-4.7-3-6-5.4-.8-1.5-1.3-3.1-1.1-4.8.2-1.8 1.7-3.4 3.4-3.8 1.3-.3 2.7-.2 3.7.6.9.7 1.5 1.8 2.1 2.8 1.1 1.8 2.6 3.5 4.5 4.5 2.1 1.1 4.6 1.3 7 1.2 2.3-.1 4.6-1 6-2.9.7-1 .7-2.2.5-3.4-.3-1.3-1.2-2.5-2.4-3.1-2.5-1.3-5.3-2-8.1-2.6-3.8-1.1-7.7-2.1-11.1-4.2-1.9-1.3-3.7-3-4.6-5.2-1.1-2.8-.9-6 .4-8.7 1-2.3 2.9-4.1 5-5.4 2.9-1.8 6.1-2.6 9.2-2.8zm133.4 2.1c.8-1.3 2.2-2.1 3.7-2.2 1.6-.1 3.5.2 4.5 1.6 1.1 1.5 1.3 3.3 1.5 5.1.7-1 1.3-2 2.1-3 1.2-1.5 2.8-2.9 4.7-3.4 3.4-.8 7-.1 10 1.5 1.3.7 2.5 1.8 2.9 3.3.4 1.5.1 3.2-.9 4.4-1 1.1-2.5 1.9-4 1.6-1.5-.3-2.9-.9-4.4-1.2-1.9-.4-3.9-.4-5.6.6-1.4.9-2.3 2.3-2.8 3.8-1.1 2.9-1.4 6-1.6 9.1-.2 5.3-.1 10.7-.1 16 0 1.9-.6 3.9-2.2 5.1-1.3 1.1-3.2 1.4-4.9 1-1.7-.4-3.2-1.8-3.7-3.4-.3-.9-.5-1.9-.4-2.9v-32.2c0-1.6.3-3.4 1.2-4.8zm-87.7 23.4h17.9c2.4 0 4.8-.2 7-1.3 1.8-1 2.4-3.2 2.4-5.1.1-3.1-.7-6.1-2-8.8-2.7-5.4-8.2-9.2-14.1-10.1-2.2-.5-4.5-.3-6.7-.3-4.4.4-8.8 1.8-12.2 4.6-3 2.4-5 5.8-6.2 9.4-.8 2.7-1.3 5.5-1.3 8.3-.1 4.4.7 8.9 2.8 12.8 1.5 2.8 3.8 5.3 6.5 7.1 2.8 1.8 6.1 2.8 9.4 3.2 3.3.4 6.6.3 9.9-.3 3.8-.8 7.6-2.5 10.4-5.3 1.4-1.4 2.6-3.1 3-5 .3-1.4 0-3-1.2-3.8-1.1-.8-2.5-.9-3.8-.7-1 .2-1.7 1-2.4 1.7-2.2 2.1-4.5 4.2-7.4 5.4-1.9.8-4 .9-6.1.7-2.4-.3-4.7-1.5-6.3-3.3-2.2-2.5-3.3-5.8-3.2-9.1 1-.2 2.3-.1 3.6-.1zm-3.9-6.4c.2-2.7 1-5.3 2.5-7.6 1.4-2 3.6-3.4 6.1-3.7 2.8-.4 5.9.2 8 2.1 2.6 2.3 3.5 5.8 3.7 9.2h-20.3zm81.2 21.9c0-1.3-.5-2.5-.8-3.7-.6-1.9-1.1-3.9-1.2-5.9-.2-2.4.1-4.9 0-7.3 0-3.3.2-6.7-.1-10-.2-2.6-.7-5.1-1.8-7.4-1.3-2.5-3.6-4.3-6.2-5.2-3.3-1.2-6.9-1.6-10.4-1.5-1.8 0-3.6-.1-5.3.2-3.5.4-6.9 1.4-9.9 3.3-2.3 1.5-4.2 3.8-4.9 6.5-.3 1.3-.4 2.6.1 3.8.8 1.7 2.6 2.6 4.4 2.6 1 0 2.1-.1 2.8-1 1.5-1.9 2.5-4.2 4.5-5.7 2.4-1.9 5.6-2.1 8.5-2 2 .1 4.3.4 5.6 2.1 1.3 1.8 1.7 4.2 1.8 6.4-1.5.6-3.1.9-4.6 1.3-5 1.4-10.1 2.2-15.2 3.4-3.3.8-6.4 2.7-8.3 5.6-1.7 2.5-2.1 5.6-1.7 8.6.5 3 2.1 5.7 4.5 7.5 2.6 2 5.8 3 9.1 3 3.1.1 6.3-.4 9.2-1.6 1.9-.7 3.7-1.8 5.4-2.9.9-.5 1.6-1.2 2.5-1.7 1 1.6 2.1 3.2 3.4 4.5.8.8 1.7 1.5 2.9 1.7 1.8.3 3.6-.5 4.8-1.8.4-.8.9-1.8.9-2.8zm-14.1-9.2c-1 2.7-3.5 4.6-6.1 5.5-2 .8-4.2 1-6.4.7-2.4-.4-4.6-2.2-5.1-4.6-.2-1.5-.2-3.2.8-4.4 1-1.1 2.3-2 3.7-2.4 4.2-1.2 8.6-1.7 12.7-3.1.4-.1.8-.2 1.2-.2.3 2.8.2 5.8-.8 8.5z"/></g></svg>
